<svg xmlns="http://www.w3.org/2000/svg" viewBox="0 0 122 122">
  <defs>
    <linearGradient id="logo128-a" x1="50%" x2="50%" y1="99.62%" y2="0%">
      <stop offset=".098%" stop-color="#FF5100"/>
      <stop offset="100%" stop-color="#FF1522"/>
    </linearGradient>
    <linearGradient id="logo128-b" x1="50%" x2="50%" y1="79.98%" y2="3.092%">
      <stop offset="0%" stop-color="#FD7821" stop-opacity="0"/>
      <stop offset="48.935%" stop-color="#FF5100"/>
      <stop offset="100%" stop-color="#FF9B27"/>
    </linearGradient>
    <linearGradient id="logo128-c" x1="56.089%" x2="12.071%" y1="66.484%" y2="30.955%">
      <stop offset="0%" stop-color="#FD7821" stop-opacity="0"/>
      <stop offset="100%" stop-color="#881000" stop-opacity=".925"/>
    </linearGradient>
  </defs>
  <g fill="none" fill-rule="evenodd" transform="translate(1 1)">
    <path fill="#FFF" d="M18.75,0 L101.25,0 C111.605339,-1.90224492e-15 120,8.39466094 120,18.75 L120,101.25 C120,111.605339 111.605339,120 101.25,120 L18.75,120 C8.39466094,120 1.26816328e-15,111.605339 0,101.25 L0,18.75 C-1.26816328e-15,8.39466094 8.39466094,1.90224492e-15 18.75,0 Z"/>
    <g stroke-dasharray="1.987" transform="translate(14.063 30)">
      <path fill="url(#logo128-a)" d="M47.3983115,46.4505713 L54.4973734,31.3222748 L60.6510483,44.4358933 L74.5881875,14.735466 C74.9048803,14.0605765 74.6125114,13.2576721 73.9351633,12.9421288 C73.7556515,12.8585031 73.5599037,12.8151601 73.3617402,12.8151601 L59.4454607,12.8151601 L52.6272875,27.3374345 L52.629021,27.3411441 L45.5302977,42.4694407 L45.5268718,42.4616841 L36.9626162,60.7037351 C35.464902,64.3261473 31.3142195,66.0485553 27.6918073,64.5508411 C25.950716,63.8309736 24.5672853,62.4483862 23.8463562,60.7077342 L23.8446999,60.7037351 L23.3101055,59.565876 L23.3104028,59.5648643 L0.766501411,11.521795 C-1.13363309,7.47244749 0.620606938,2.65503052 4.68470619,0.761793058 C5.76176589,0.260050933 6.93623798,-3.90798505e-14 8.12520405,-3.90798505e-14 L32.9072569,-3.90798505e-14 C37.112677,-3.90798505e-14 40.937953,2.42548748 42.7189913,6.22131296 L43.6575453,8.22159971 L36.5520525,23.3357321 L32.3449752,14.370388 C31.8996935,13.4214861 30.9434035,12.8151601 29.8920887,12.8151601 L17.6988896,12.8151601 C16.9511631,12.8151601 16.3450111,13.419112 16.3450111,14.1641244 C16.3450111,14.3615686 16.3885119,14.5566058 16.4724423,14.735466 L30.4094646,44.4358933 L38.4311946,27.3404697 L38.419051,27.3145021 L45.5245437,12.2003697 L45.529918,12.2118359 L48.3415662,6.22107888 C50.1226559,2.42538054 53.9478643,-3.90798505e-14 58.1531906,-3.90798505e-14 L82.9354257,-3.90798505e-14 C87.4217843,-3.90798505e-14 91.0586966,3.62371113 91.0586966,8.09378534 C91.0586966,9.27843575 90.7976983,10.4486448 90.2941283,11.521795 L67.2159299,60.7037351 C65.7168598,64.3294268 61.5624195,66.0533942 57.9367278,64.5543241 C56.1955154,63.8344064 54.8116279,62.452247 54.0895353,60.7119355 L54.0861328,60.7037351 L47.3983115,46.4505713 Z"/>
      <path fill="url(#logo128-b)" d="M52.6272875,27.3374345 L52.629021,27.3411441 L51.8494663,29.0019052 L37.6504663,29.0019052 L38.4311946,27.3404697 L38.419051,27.3145021 L45.5245437,12.2003697 L45.529918,12.2118359 L48.3415662,6.22107888 C50.1226559,2.42538054 53.9478643,2.06057393e-13 58.1531906,2.06057393e-13 L70.6775725,5.69766456e-13 L70.6774607,0.001 L70.6223504,1.15552012e-12 C67.2519783,1.15552012e-12 64.3610124,2.04513177 63.1312995,4.95783843 L63.1312995,4.95783843 L59.4454607,12.8151601 L52.6272875,27.3374345 Z"/>
      <path fill="url(#logo128-c)" d="M82.0185317,2.27373675e-13 C86.8197225,2.25780111e-13 90.7118567,3.89213418 90.7118567,8.693325 C90.7118567,9.96982383 90.4307418,11.2306601 89.8884839,12.3862577 L85.4144607,21.92 L71.2164607,21.92 L74.5205789,14.8795436 C74.8605079,14.1551364 74.5488268,13.2923214 73.8244196,12.9523923 C73.6318181,12.8620138 73.4216761,12.8151601 73.2089236,12.8151601 L71.1764607,12.815 L71.1764607,12.8143126 L59.4454607,12.8151601 L63.1312995,4.95783843 C64.3610124,2.04513177 67.2519783,9.1038288e-13 70.6223504,9.1038288e-13 L70.6774607,0.001 L70.6775725,3.24629212e-13 L82.0185317,2.27373675e-13 Z" style="mix-blend-mode:multiply"/>
    </g>
  </g>
</svg>
